<!-- icon666.com - MILLIONS vector ICONS FREE --><svg version="1.1" id="Layer_1" xmlns="http://www.w3.org/2000/svg" xmlns:xlink="http://www.w3.org/1999/xlink" x="0px" y="0px" viewBox="0 0 512 512" style="enable-background:new 0 0 512 512;" xml:space="preserve"><g><g><rect x="56.589" y="215.579" width="16.168" height="16.168"></rect></g></g><g><g><rect x="223.663" y="215.579" width="16.168" height="16.168"></rect></g></g><g><g><rect x="56.589" y="366.484" width="16.168" height="16.168"></rect></g></g><g><g><rect x="223.663" y="366.484" width="16.168" height="16.168"></rect></g></g><g><g><rect x="272.168" y="215.579" width="16.168" height="16.168"></rect></g></g><g><g><rect x="439.242" y="215.579" width="16.168" height="16.168"></rect></g></g><g><g><rect x="272.168" y="366.484" width="16.168" height="16.168"></rect></g></g><g><g><rect x="439.242" y="366.484" width="16.168" height="16.168"></rect></g></g><g><g><rect x="164.379" y="21.558" width="16.168" height="16.168"></rect></g></g><g><g><rect x="331.453" y="21.558" width="16.168" height="16.168"></rect></g></g><g><g><rect x="164.379" y="172.463" width="16.168" height="16.168"></rect></g></g><g><g><rect x="331.453" y="172.463" width="16.168" height="16.168"></rect></g></g><g><g><path d="M512,436.547v-48.505h-32.337v-26.947v-16.168v-91.621v-16.168v-43.116H371.874v-26.947v-16.168V59.284V43.116V0H140.126 v43.116v16.168v91.621v16.168v26.947H32.337v43.116v16.168v91.621v16.168v26.947H0v48.505h43.116v26.947H0V512h512v-48.505 h-53.895v-26.947H512z M463.495,210.189v26.947h-26.947h-16.168h-16.168h-16.168h-16.168h-16.168h-16.168h-16.168h-32.337h-26.947 v-26.947h107.789H463.495z M291.032,361.095h32.337h16.168h16.168h16.168h16.168h16.168h16.168h16.168h26.947v26.947H264.084 v-26.947H291.032z M264.084,344.926v-91.621h26.947v91.621H264.084z M323.368,287.943v56.983H307.2v-65.067L323.368,287.943z M307.2,261.783v-8.478h16.168v16.562L307.2,261.783z M355.705,304.112v40.815h-16.168v-48.899L355.705,304.112z M339.537,277.951 v-24.646h16.168v32.73L339.537,277.951z M388.042,320.28v24.646h-16.168v-32.73L388.042,320.28z M371.874,294.12v-40.815h16.168 v48.899L371.874,294.12z M420.379,336.449v8.478h-16.168v-16.562L420.379,336.449z M404.211,310.288v-56.983h16.168v65.067 L404.211,310.288z M436.547,344.926v-91.621h26.947v91.621H436.547z M355.705,150.905h-26.947V59.284h26.947V150.905z M156.295,16.168h199.411v26.947h-26.947h-16.168h-16.168h-16.168h-16.168h-16.168h-16.168h-16.168h-16.168h-16.168h-26.947 V16.168z M296.421,116.267V59.284h16.168v65.067L296.421,116.267z M312.589,142.428v8.478h-16.168v-16.562L312.589,142.428z M264.084,100.099V59.284h16.168v48.899L264.084,100.099z M280.253,126.259v24.646h-16.168v-32.73L280.253,126.259z M231.747,83.93V59.284h16.168v32.73L231.747,83.93z M247.916,110.091v40.814h-16.168v-48.899L247.916,110.091z M199.411,67.762 v-8.478h16.168v16.562L199.411,67.762z M215.579,93.922v56.983h-16.168V85.838L215.579,93.922z M156.295,59.284h26.947v91.621 h-26.947V59.284z M156.295,167.074h26.947h16.168h16.168h16.168h16.168h16.168h16.168h16.168h16.168h16.168h26.947v26.947h-91.621 h-16.168h-91.621V167.074z M48.505,210.189h91.621h107.789v26.947h-26.947H204.8h-16.168h-16.168h-16.168h-16.168h-16.168h-16.168 H91.621H75.453H48.505V210.189z M247.916,253.305v91.621h-26.947v-91.621H247.916z M188.632,310.288v-56.983H204.8v65.067 L188.632,310.288z M204.8,336.449v8.478h-16.168v-16.562L204.8,336.449z M156.295,294.12v-40.815h16.168v48.899L156.295,294.12z M172.463,320.28v24.646h-16.168v-32.73L172.463,320.28z M123.958,277.951v-24.646h16.168v32.73L123.958,277.951z M140.126,304.112v40.815h-16.168v-48.899L140.126,304.112z M91.621,261.783v-8.478h16.168v16.562L91.621,261.783z M107.789,287.943v56.983H91.621v-65.067L107.789,287.943z M48.505,253.305h26.947v91.621H48.505V253.305z M48.505,361.095h26.947 h16.168h16.168h16.168h16.168h16.168h16.168h16.168H204.8h16.168h26.947v26.947H48.505V361.095z M495.832,479.663v16.168H16.168 v-16.168H495.832z M59.284,463.495v-26.947h16.168v26.947H59.284z M91.621,463.495v-26.947h140.126v26.947H91.621z M247.916,463.495v-26.947h16.168v26.947H247.916z M280.253,463.495v-26.947H409.6v26.947H280.253z M425.768,463.495v-26.947 h16.168v26.947H425.768z M16.168,420.379v-16.168h16.168h215.579h16.168h215.579h16.168v16.168H16.168z"></path></g></g></svg>