<!-- icon666.com - MILLIONS vector ICONS FREE --><svg version="1.1" id="Capa_1" xmlns="http://www.w3.org/2000/svg" xmlns:xlink="http://www.w3.org/1999/xlink" x="0px" y="0px" viewBox="0 0 512 512" style="enable-background:new 0 0 512 512;" xml:space="preserve"><g><g><path d="M469.333,10.667H42.667C19.136,10.667,0,29.803,0,53.333v256C0,332.864,19.136,352,42.667,352h106.667 c5.888,0,10.667-4.768,10.667-10.667c0-5.899-4.779-10.667-10.667-10.667H42.667c-11.765,0-21.333-9.568-21.333-21.333v-256 C21.333,41.568,30.901,32,42.667,32h426.667c11.765,0,21.333,9.568,21.333,21.333v224c0,5.899,4.779,10.667,10.667,10.667 c5.888,0,10.667-4.768,10.667-10.667v-224C512,29.803,492.864,10.667,469.333,10.667z"></path></g></g><g><g><path d="M448,117.333c-23.531,0-42.667-19.136-42.667-42.667c0-5.899-4.779-10.667-10.667-10.667H117.333 c-5.888,0-10.667,4.768-10.667,10.667c0,23.531-19.136,42.667-42.667,42.667c-5.888,0-10.667,4.768-10.667,10.667v106.667 c0,5.899,4.779,10.667,10.667,10.667c23.531,0,42.667,19.136,42.667,42.667c0,5.899,4.779,10.667,10.667,10.667h32 c5.888,0,10.667-4.768,10.667-10.667s-4.779-10.667-10.667-10.667h-22.219c-4.512-26.763-25.685-47.936-52.448-52.448v-87.104 c26.763-4.512,47.936-25.685,52.448-52.448h257.771c4.512,26.763,25.685,47.936,52.448,52.448v87.104 C407.104,229.984,384,256.341,384,288c0,5.899,4.779,10.667,10.667,10.667s10.667-4.768,10.667-10.667 c0-23.531,19.136-42.667,42.667-42.667c5.888,0,10.667-4.768,10.667-10.667V128C458.667,122.101,453.888,117.333,448,117.333z"></path></g></g><g><g><path d="M311.648,131.552c-14.155-15.808-34.432-24.885-55.648-24.885c-41.173,0-74.667,33.504-74.667,74.667 c0,5.899,4.779,10.667,10.667,10.667s10.667-4.768,10.667-10.667C202.667,151.925,226.592,128,256,128 c15.147,0,29.643,6.475,39.755,17.781c3.925,4.384,10.667,4.768,15.061,0.832C315.2,142.688,315.573,135.947,311.648,131.552z"></path></g></g><g><g><path d="M384,170.667h-10.667c-5.888,0-10.667,4.768-10.667,10.667c0,5.899,4.779,10.667,10.667,10.667H384 c5.888,0,10.667-4.768,10.667-10.667C394.667,175.435,389.888,170.667,384,170.667z"></path></g></g><g><g><path d="M138.667,170.667H128c-5.888,0-10.667,4.768-10.667,10.667c0,5.899,4.779,10.667,10.667,10.667h10.667 c5.888,0,10.667-4.768,10.667-10.667C149.333,175.435,144.555,170.667,138.667,170.667z"></path></g></g><g><g><path d="M277.333,202.667c-42.411,0-85.333,14.656-85.333,42.667C192,273.344,234.923,288,277.333,288 c42.411,0,85.333-14.656,85.333-42.667C362.667,217.323,319.744,202.667,277.333,202.667z M277.333,266.667 c-39.701,0-64-13.813-64-21.333c0-7.52,24.299-21.333,64-21.333c39.701,0,64,13.813,64,21.333 C341.333,252.853,317.035,266.667,277.333,266.667z"></path></g></g><g><g><path d="M352,341.333c-5.888,0-10.667,4.768-10.667,10.667c0,7.52-24.299,21.333-64,21.333c-39.701,0-64-13.813-64-21.333 c0-5.899-4.779-10.667-10.667-10.667S192,346.101,192,352c0,28.011,42.923,42.667,85.333,42.667 c42.411,0,85.333-14.656,85.333-42.667C362.667,346.101,357.888,341.333,352,341.333z"></path></g></g><g><g><path d="M352,394.667c-5.888,0-10.667,4.768-10.667,10.667c0,7.52-24.299,21.333-64,21.333c-39.701,0-64-13.813-64-21.333 c0-5.899-4.779-10.667-10.667-10.667S192,399.435,192,405.333C192,433.344,234.923,448,277.333,448 c42.411,0,85.333-14.656,85.333-42.667C362.667,399.435,357.888,394.667,352,394.667z"></path></g></g><g><g><path d="M352,234.667c-5.888,0-10.667,4.768-10.667,10.667v213.333c0,7.52-24.299,21.333-64,21.333c-39.701,0-64-13.813-64-21.333 V245.333c0-5.899-4.779-10.667-10.667-10.667S192,239.435,192,245.333v213.333c0,28.011,42.923,42.667,85.333,42.667 c42.411,0,85.333-14.656,85.333-42.667V245.333C362.667,239.435,357.888,234.667,352,234.667z"></path></g></g><g><g><path d="M352,288c-5.888,0-10.667,4.768-10.667,10.667c0,7.52-24.299,21.333-64,21.333c-39.701,0-64-13.813-64-21.333 c0-5.899-4.779-10.667-10.667-10.667S192,292.768,192,298.667c0,28.011,42.923,42.667,85.333,42.667 c42.411,0,85.333-14.656,85.333-42.667C362.667,292.768,357.888,288,352,288z"></path></g></g><g><g><path d="M426.667,309.333c-42.411,0-85.333,14.656-85.333,42.667s42.923,42.667,85.333,42.667 C469.077,394.667,512,380.011,512,352S469.077,309.333,426.667,309.333z M426.667,373.333c-39.701,0-64-13.813-64-21.333 s24.299-21.333,64-21.333s64,13.813,64,21.333S466.368,373.333,426.667,373.333z"></path></g></g><g><g><path d="M501.333,341.333c-5.888,0-10.667,4.768-10.667,10.667v106.667c0,7.52-24.299,21.333-64,21.333s-64-13.813-64-21.333V352 c0-5.899-4.779-10.667-10.667-10.667c-5.888,0-10.667,4.768-10.667,10.667v106.667c0,28.011,42.923,42.667,85.333,42.667 c42.411,0,85.333-14.656,85.333-42.667V352C512,346.101,507.221,341.333,501.333,341.333z"></path></g></g><g><g><path d="M501.333,394.667c-5.888,0-10.667,4.768-10.667,10.667c0,7.52-24.299,21.333-64,21.333s-64-13.813-64-21.333 c0-5.899-4.779-10.667-10.667-10.667c-5.888,0-10.667,4.768-10.667,10.667c0,28.011,42.923,42.667,85.333,42.667 C469.077,448,512,433.344,512,405.333C512,399.435,507.221,394.667,501.333,394.667z"></path></g></g></svg>