<!-- icon666.com - MILLIONS vector ICONS FREE --><svg version="1.1" id="Capa_1" xmlns="http://www.w3.org/2000/svg" xmlns:xlink="http://www.w3.org/1999/xlink" x="0px" y="0px" viewBox="0 0 362 362" style="enable-background:new 0 0 362 362;" xml:space="preserve"><g><path d="M332,16.5H30c-16.542,0-30,13.458-30,30v269c0,16.542,13.458,30,30,30h302c16.542,0,30-13.458,30-30v-269 C362,29.958,348.542,16.5,332,16.5z M117.837,45.888c5.675,0,10.276,4.601,10.276,10.276s-4.601,10.276-10.276,10.276 c-5.675,0-10.276-4.601-10.276-10.276S112.162,45.888,117.837,45.888z M81.371,45.888c5.675,0,10.276,4.601,10.276,10.276 s-4.601,10.276-10.276,10.276c-5.675,0-10.276-4.601-10.276-10.276S75.695,45.888,81.371,45.888z M44.904,45.888 c5.675,0,10.276,4.601,10.276,10.276S50.58,66.439,44.904,66.439c-5.675,0-10.276-4.601-10.276-10.276S39.229,45.888,44.904,45.888 z M332,315.5H30v-228h302.003l0.016,228C332.019,315.5,332.013,315.5,332,315.5z"></path><path d="M280,250.5h-92.313c-4.055-10.739-14.436-18.4-26.576-18.4c-12.141,0-22.523,7.661-26.577,18.4H83c-5.522,0-10,4.477-10,10 c0,5.523,4.478,10,10,10h51.533c4.054,10.739,14.436,18.4,26.577,18.4c12.141,0,22.522-7.661,26.576-18.4H280 c5.522,0,10-4.477,10-10C290,254.977,285.522,250.5,280,250.5z M161.11,271.9c-6.281,0-11.391-5.114-11.391-11.4 s5.109-11.4,11.391-11.4c6.286,0,11.399,5.114,11.399,11.4S167.396,271.9,161.11,271.9z"></path><path d="M280,134.5H149.077c-4.054-10.739-14.436-18.4-26.577-18.4s-22.523,7.661-26.577,18.4H83c-5.522,0-10,4.477-10,10 s4.478,10,10,10h12.923c4.054,10.739,14.436,18.4,26.577,18.4s22.523-7.661,26.577-18.4H280c5.522,0,10-4.477,10-10 S285.522,134.5,280,134.5z M122.5,155.9c-6.286,0-11.4-5.114-11.4-11.4s5.114-11.4,11.4-11.4c6.28,0,11.39,5.114,11.39,11.4 S128.78,155.9,122.5,155.9z"></path><path d="M280,192.5h-49.023c-4.054-10.739-14.436-18.4-26.576-18.4c-12.141,0-22.523,7.661-26.577,18.4H83c-5.522,0-10,4.477-10,10 s4.478,10,10,10h94.823c4.054,10.739,14.436,18.4,26.577,18.4c12.141,0,22.522-7.661,26.576-18.4H280c5.522,0,10-4.477,10-10 S285.522,192.5,280,192.5z M204.4,213.9c-6.286,0-11.4-5.114-11.4-11.4s5.114-11.4,11.4-11.4c6.286,0,11.399,5.114,11.399,11.4 S210.686,213.9,204.4,213.9z"></path></g></svg>