<!-- icon666.com - MILLIONS vector ICONS FREE --><svg version="1.1" id="Capa_1" xmlns="http://www.w3.org/2000/svg" xmlns:xlink="http://www.w3.org/1999/xlink" x="0px" y="0px" viewBox="0 0 319.195 319.195" style="enable-background:new 0 0 319.195 319.195;" xml:space="preserve"><g><path d="M33.607,193.232c0.748,1.095,1.9,1.848,3.203,2.093c0.308,0.058,0.616,0.087,0.925,0.087c0.999,0,1.984-0.3,2.821-0.872 l41.624-28.442v56.912H59.348v-20.162c0-2.761-2.238-5-5-5h-5c-2.762,0-5,2.239-5,5v20.162h-8.022c-0.553,0-1,0.448-1,1 c0,0.552,0.447,1,1,1h8.022v51.004c0,2.761,2.238,5,5,5h5c2.762,0,5-2.239,5-5V225.01h22.833v51.004c0,0.552,0.447,1,1,1 c0.552,0,1-0.448,1-1V225.01h5.167v51.004c0,2.761,2.238,5,5,5h5c2.762,0,5-2.239,5-5V225.01h30v51.004c0,2.761,2.238,5,5,5h5 c2.762,0,5-2.239,5-5V225.01h22.833v51.004c0,0.552,0.447,1,1,1c0.552,0,1-0.448,1-1V225.01h5.167v51.004c0,2.761,2.238,5,5,5h5 c2.762,0,5-2.239,5-5V225.01h30v51.004c0,2.761,2.238,5,5,5h5c2.762,0,5-2.239,5-5V225.01h22.833v51.004c0,0.552,0.447,1,1,1 c0.552,0,1-0.448,1-1V225.01h34.632c0.553,0,1-0.448,1-1c0-0.552-0.447-1-1-1h-34.632v-88h34.632c0.553,0,1-0.448,1-1 c0-0.552-0.447-1-1-1h-34.632v-88h34.632c0.553,0,1-0.448,1-1c0-0.552-0.447-1-1-1h-34.632V28.682c0-0.552-0.448-1-1-1 c-0.553,0-1,0.448-1,1V43.01h-88V28.682c0-0.552-0.448-1-1-1c-0.553,0-1,0.448-1,1V43.01h-88V28.682c0-0.552-0.448-1-1-1 c-0.553,0-1,0.448-1,1V43.01H36.325c-0.553,0-1,0.448-1,1c0,0.552,0.447,1,1,1h45.856v88H36.325c-0.553,0-1,0.448-1,1 c0,0.552,0.447,1,1,1h45.856v12.921l-50.087,34.225c-2.279,1.558-2.865,4.669-1.307,6.949L33.607,193.232z M149.348,223.01v-51.662 c0-2.761-2.238-5-5-5h-5c-2.762,0-5,2.239-5,5v51.662h-30v-47.162c0-2.761-2.238-5-5-5h-5c-2.762,0-5,2.239-5,5v47.162h-5.167 v-58.278l32.481-22.195l55.518,24.05v56.423H149.348z M172.181,150.241l-35.157-15.231h35.157V150.241z M174.181,45.01h88v88 h-45.928l17.742-18.034l0.79,10.655c0.204,2.753,2.574,4.824,5.355,4.617l4.986-0.369c1.322-0.098,2.552-0.717,3.418-1.722 c0.866-1.004,1.297-2.311,1.199-3.634l-2.234-30.148c-0.098-1.322-0.718-2.552-1.722-3.418c-1.005-0.865-2.311-1.298-3.635-1.199 l-30.149,2.238c-2.754,0.205-4.82,2.602-4.616,5.355l0.369,4.986c0.098,1.323,0.718,2.552,1.722,3.418 c1.004,0.866,2.309,1.295,3.635,1.199l8.34-0.619l-26.242,26.675h-21.03V45.01z M174.181,135.01h19.062l-16.8,17.077l-2.262-0.98 V135.01z M176.775,168.577c1.897,0.822,4.102,0.392,5.552-1.082l31.959-32.486h47.895v88h-22.833v-78.662c0-2.761-2.238-5-5-5h-5 c-2.762,0-5,2.239-5,5v78.662h-30v-38.162c0-2.761-2.238-5-5-5h-5c-2.762,0-5,2.239-5,5v38.162h-5.167v-55.556L176.775,168.577z M84.181,45.01h88v88h-39.774l-14.844-6.43c-1.571-0.683-3.388-0.509-4.808,0.46l-8.737,5.971H84.181V45.01z M84.181,135.01h16.909 l-16.909,11.554V135.01z"></path><path d="M314.195,293.804H15V15.392c0-2.761-2.238-5-5-5H5c-2.762,0-5,2.239-5,5v288.412c0,2.761,2.238,5,5,5h309.195 c2.762,0,5-2.239,5-5v-5C319.195,296.043,316.957,293.804,314.195,293.804z"></path></g></svg>